<?xml version="1.0" encoding="utf-8"?>
<!-- Generator: Adobe Illustrator 21.0.0, SVG Export Plug-In . SVG Version: 6.00 Build 0)  -->
<svg version="1.2" baseProfile="tiny" id="圖層_1"
	 xmlns="http://www.w3.org/2000/svg" xmlns:xlink="http://www.w3.org/1999/xlink" x="0px" y="0px" viewBox="0 0 72.5 39"
	 overflow="scroll" xml:space="preserve">
<g>
	<polygon fill="#FFCD4D" points="49.5,0 52.5,6 59.1,7 54.3,11.7 55.5,18.3 49.5,15.2 43.6,18.3 44.7,11.7 39.9,7 46.6,6 	"/>
	<polygon fill="#FFCD4D" points="22.9,0 25.9,6 32.5,7 27.7,11.7 28.9,18.3 22.9,15.2 17,18.3 18.1,11.7 13.3,7 19.9,6 	"/>
</g>
<g>
	<polygon fill="#FFCD4D" points="36.2,20.7 39.2,26.7 45.8,27.7 41,32.3 42.2,39 36.2,35.8 30.3,39 31.4,32.3 26.6,27.7 33.3,26.7 	
		"/>
	<polygon fill="#FFCD4D" points="9.6,20.7 12.6,26.7 19.2,27.7 14.4,32.3 15.5,39 9.6,35.8 3.7,39 4.8,32.3 0,27.7 6.6,26.7 	"/>
	<polygon fill="#FFCD4D" points="62.8,20.7 59.9,26.7 53.2,27.7 58,32.3 56.9,39 62.8,35.8 68.8,39 67.6,32.3 72.5,27.7 65.8,26.7 	
		"/>
</g>
</svg>
