<?xml version="1.0" encoding="utf-8"?>
<!-- Generator: Adobe Illustrator 21.0.0, SVG Export Plug-In . SVG Version: 6.00 Build 0)  -->
<svg version="1.2" baseProfile="tiny" id="圖層_1"
	 xmlns="http://www.w3.org/2000/svg" xmlns:xlink="http://www.w3.org/1999/xlink" x="0px" y="0px" viewBox="0 0 210.7 56.9"
	 overflow="scroll" xml:space="preserve">
<path fill="#2E77E6" d="M210.7,25.8C143.2-8.6,67.5-8.6,0,25.8c9,1.5,15.6,5.6,23.9,8.2c-4.3,7.6-8,15.2-11.2,22.9
	c58.2-29.6,127.1-29.6,185.3,0c-3.2-7.7-6.9-15.4-11.2-22.9C195,31.4,201.6,27.3,210.7,25.8z"/>
<g>
	<path fill="#FFFFFF" d="M89.3,13.4c-0.5,0.9-1.1,1.8-1.8,2.7v11.5h-2.4v-8.8c-0.6,0.6-1.3,1.2-1.9,1.7c-0.2-0.6-0.8-2-1.2-2.6
		c1.9-1.3,4-3.4,5.2-5.4L89.3,13.4z M89,8.8c-1.4,1.9-3.6,4-5.5,5.3c-0.3-0.6-0.9-1.6-1.2-2.1c1.7-1,3.5-2.7,4.4-4.1L89,8.8z
		 M101.8,22.1h-2.9v3c0,1.2-0.2,1.8-1,2.1c-0.8,0.4-1.8,0.4-3.3,0.4c-0.1-0.7-0.5-1.6-0.8-2.2c0.9,0,1.9,0,2.2,0
		c0.3,0,0.4-0.1,0.4-0.3v-2.9h-4.4c0.8,0.8,1.9,1.9,2.4,2.6l-1.9,1.3C92,25.3,90.9,24,90,23.1l1.6-1h-3V20h7.7v-1.2h-7.2v-2.1h12.3
		v2.1h-2.5V20h2.9L101.8,22.1z M100.7,15.8H90.2V8.4h10.5V15.8z M98.2,10.2h-5.5v1.1h5.5V10.2z M98.2,12.9h-5.5V14h5.5V12.9z"/>
	<path fill="#FFFFFF" d="M117.5,8.1c1,3.1,3.1,6.1,6.1,7.6c-0.5,0.5-1.4,1.6-1.8,2.3c-0.5-0.4-1.1-0.8-1.6-1.2
		c-0.2,6.2-0.5,8.7-1.2,9.5c-0.5,0.7-1.1,0.9-1.9,1c-0.7,0.1-1.9,0.1-3.2,0.1c0-0.8-0.4-1.8-0.8-2.5c1.2,0.1,2.3,0.1,2.8,0.1
		c0.4,0,0.6,0,0.8-0.3c0.4-0.5,0.7-2.3,0.8-6.8h-4.2c-0.5,4.1-1.9,7.7-7.4,9.7c-0.3-0.7-1.1-1.8-1.7-2.3c4.8-1.5,5.9-4.3,6.3-7.4
		H107v-1.4c-0.5,0.6-1,1.1-1.6,1.5c-0.4-0.5-1.5-1.4-2.1-1.9c2.4-1.7,4.3-4.5,5.2-7.7l2.6,0.6c-0.8,2.4-1.9,4.6-3.3,6.4h11
		c-1.4-1.5-2.5-3.3-3.2-5.1h-3.4V8.1H117.5z"/>
</g>
</svg>
