<?xml version="1.0" encoding="utf-8"?>
<!-- Generator: Adobe Illustrator 21.0.0, SVG Export Plug-In . SVG Version: 6.00 Build 0)  -->
<svg version="1.2" baseProfile="tiny" id="Layer_1" xmlns="http://www.w3.org/2000/svg" xmlns:xlink="http://www.w3.org/1999/xlink"
	 x="0px" y="0px" viewBox="0 0 710.8 710.8" overflow="scroll" xml:space="preserve">
<g>
	<rect fill="#FBFBFB" width="710.8" height="710.8"/>
	<rect fill="#FFFAEE" width="710.8" height="710.8"/>
	<g>
		<g>
			<path fill="#433F5D" d="M161.1,645.4l4.2,4.7c0.5,0.5,0.4,1.4-0.1,1.8c-0.5,0.5-1.4,0.4-1.8-0.1l-4.2-4.7
				c-0.5-0.5-0.4-1.4,0.1-1.8C159.8,644.8,160.6,644.9,161.1,645.4z"/>
		</g>
		<g>
			<path fill="#433F5D" d="M333.1,72.4l-7,2.7c-0.8,0.3-1.7-0.1-2-0.9c-0.3-0.8,0.1-1.7,0.9-2l7-2.7c0.8-0.3,1.7,0.1,2,0.9
				C334.3,71.2,333.9,72.1,333.1,72.4z"/>
		</g>
		<g>
			<path fill="#433F5D" d="M356.6,232.7l-5.5,4.5c-0.6,0.5-1.5,0.4-2.1-0.2c-0.5-0.6-0.4-1.6,0.2-2.1l5.5-4.5
				c0.6-0.5,1.6-0.4,2.1,0.2C357.3,231.2,357.2,232.2,356.6,232.7z"/>
		</g>
		<g>
			<path fill="#433F5D" d="M365.7,613.9l9.2,6.3c1.1,0.7,1.3,2.2,0.6,3.2c-0.7,1.1-2.2,1.3-3.2,0.6l-9.2-6.3
				c-1.1-0.7-1.3-2.2-0.6-3.2C363.2,613.4,364.6,613.2,365.7,613.9z"/>
		</g>
		<g>
			<path fill="#433F5D" d="M102.2,149l10.3-13.6c1.2-1.6,3.4-1.9,5-0.7c1.6,1.2,1.9,3.4,0.7,5l-10.3,13.6c-1.2,1.6-3.4,1.9-5,0.7
				C101.4,152.8,101.1,150.6,102.2,149z"/>
		</g>
		<g>
			<path fill="#433F5D" d="M541.4,117.2l-4.5-6.5c-0.5-0.7-0.3-1.8,0.4-2.3c0.7-0.5,1.8-0.3,2.3,0.4l4.5,6.5
				c0.5,0.7,0.3,1.8-0.4,2.3C543,118.1,541.9,117.9,541.4,117.2z"/>
		</g>
		<g>
			<path fill="#433F5D" d="M565.7,76.6l10.5-9.3c1.2-1.1,3-0.9,4.1,0.2c1.1,1.2,0.9,3-0.3,4.1L569.6,81c-1.2,1.1-3,0.9-4.1-0.2
				C564.4,79.5,564.5,77.7,565.7,76.6z"/>
		</g>
		<g>
			<path fill="#433F5D" d="M314.6,251.2l-5.5,6.1c-0.6,0.7-1.7,0.8-2.4,0.1c-0.7-0.6-0.8-1.7-0.1-2.4l5.5-6.1
				c0.6-0.7,1.7-0.8,2.4-0.1C315.2,249.4,315.2,250.5,314.6,251.2z"/>
		</g>
		<g>
			<path fill="#433F5D" d="M138.2,291.4l-5.9,17c-0.7,1.9-2.8,3-4.7,2.3c-1.9-0.7-3-2.8-2.3-4.7l5.9-17c0.7-1.9,2.8-3,4.7-2.3
				C137.9,287.3,138.9,289.4,138.2,291.4z"/>
		</g>
		<g>
			<path fill="#433F5D" d="M139,205l-13.3-10.1c-1.5-1.2-1.8-3.3-0.7-4.8c1.2-1.5,3.3-1.8,4.8-0.7l13.4,10.1
				c1.5,1.2,1.8,3.3,0.7,4.8C142.7,205.9,140.5,206.2,139,205z"/>
		</g>
		<g>
			<path fill="#433F5D" d="M93.3,454.4l-1.6,11.5c-0.2,1.3-1.4,2.2-2.7,2c-1.3-0.2-2.2-1.4-2-2.7l1.6-11.5c0.2-1.3,1.4-2.2,2.7-2
				C92.6,451.8,93.5,453,93.3,454.4z"/>
		</g>
		<g>
			<path fill="#433F5D" d="M624.3,275.6l8.2,15.1c0.9,1.7,0.3,3.9-1.4,4.8c-1.7,0.9-3.9,0.3-4.8-1.4l-8.2-15.1
				c-0.9-1.7-0.3-3.9,1.4-4.8C621.2,273.2,623.4,273.8,624.3,275.6z"/>
		</g>
		<g>
			<path fill="#433F5D" d="M575.1,330.1L561,340.7c-1.6,1.2-3.9,0.9-5.1-0.7c-1.2-1.6-0.9-3.9,0.7-5.1l14.2-10.6
				c1.6-1.2,3.9-0.9,5.1,0.7C577.1,326.6,576.7,328.9,575.1,330.1z"/>
		</g>
		<g>
			<path fill="#433F5D" d="M616.1,124.4l-11.6,5.3c-1.3,0.6-2.9,0-3.5-1.3c-0.6-1.3,0-2.9,1.3-3.5l11.6-5.3c1.3-0.6,2.9,0,3.5,1.3
				C618,122.3,617.4,123.8,616.1,124.4z"/>
		</g>
		<g>
			<path fill="#433F5D" d="M430.4,366.3l-1,23.8c-0.1,2.7-2.4,4.8-5.1,4.7c-2.7-0.1-4.8-2.4-4.7-5.1l1-23.8c0.1-2.7,2.4-4.8,5.1-4.7
				C428.4,361.3,430.5,363.6,430.4,366.3z"/>
		</g>
		<g>
			<path fill="#433F5D" d="M226.7,387.2l10.6-0.6c1.2-0.1,2.2,0.9,2.3,2.1c0.1,1.2-0.9,2.2-2.1,2.3l-10.6,0.6
				c-1.2,0.1-2.2-0.9-2.3-2.1C224.6,388.3,225.5,387.3,226.7,387.2z"/>
		</g>
		<g>
			<path fill="#433F5D" d="M498.1,81.9l-2.8,5.3c-0.3,0.6-1.1,0.8-1.7,0.5c-0.6-0.3-0.8-1.1-0.5-1.7l2.8-5.3
				c0.3-0.6,1.1-0.8,1.7-0.5C498.2,80.5,498.4,81.3,498.1,81.9z"/>
		</g>
		<g>
			<path fill="#433F5D" d="M628.5,70.7l17-4.7c1.9-0.5,3.9,0.6,4.5,2.6c0.5,1.9-0.6,4-2.6,4.5l-17,4.7c-1.9,0.5-3.9-0.6-4.5-2.6
				C625.4,73.2,626.5,71.2,628.5,70.7z"/>
		</g>
		<g>
			<path fill="#433F5D" d="M260.3,75.5l-3.8-11.2c-0.4-1.3,0.3-2.7,1.5-3.1c1.3-0.4,2.7,0.3,3.1,1.5l3.8,11.2
				c0.4,1.3-0.3,2.7-1.5,3.1C262.1,77.4,260.7,76.8,260.3,75.5z"/>
		</g>
		<g>
			<path fill="#433F5D" d="M408.1,268.9l-14.2-10.1c-1.6-1.2-2-3.4-0.8-5c1.2-1.6,3.4-2,5-0.8l14.2,10.1c1.6,1.2,2,3.4,0.8,5
				C412,269.7,409.8,270.1,408.1,268.9z"/>
		</g>
		<g>
			<path fill="#433F5D" d="M325.2,326.3l8.2,7.6c0.9,0.9,1,2.3,0.1,3.3c-0.9,0.9-2.3,1-3.3,0.1l-8.2-7.6c-0.9-0.9-1-2.3-0.1-3.3
				C322.8,325.5,324.3,325.5,325.2,326.3z"/>
		</g>
		<g>
			<path fill="#433F5D" d="M442.3,22.3l-1-6.5c-0.1-0.7,0.4-1.4,1.1-1.5c0.7-0.1,1.4,0.4,1.5,1.1l1,6.5c0.1,0.7-0.4,1.4-1.1,1.5
				C443.1,23.6,442.4,23.1,442.3,22.3z"/>
		</g>
		<g>
			<path fill="#433F5D" d="M479.4,470.8l2.8-5.6c0.3-0.6,1.1-0.9,1.7-0.6c0.6,0.3,0.9,1.1,0.6,1.7l-2.8,5.6
				c-0.3,0.6-1.1,0.9-1.7,0.6C479.4,472.3,479.1,471.5,479.4,470.8z"/>
		</g>
		<g>
			<path fill="#433F5D" d="M506.6,232.6l-13.8-5.8c-1.6-0.7-2.3-2.5-1.7-4c0.7-1.6,2.5-2.3,4-1.7l13.8,5.8c1.6,0.7,2.3,2.5,1.7,4
				C509.9,232.5,508.1,233.2,506.6,232.6z"/>
		</g>
		<g>
			<path fill="#433F5D" d="M236.7,256.9l2,7.9c0.2,0.9-0.3,1.8-1.2,2c-0.9,0.2-1.8-0.3-2-1.2l-2-7.9c-0.2-0.9,0.3-1.8,1.2-2
				C235.6,255.4,236.5,256,236.7,256.9z"/>
		</g>
		<g>
			<path fill="#433F5D" d="M416.1,452.4l19-3.3c2.2-0.4,4.2,1.1,4.6,3.2c0.4,2.2-1.1,4.2-3.2,4.6l-19,3.3c-2.2,0.4-4.2-1.1-4.6-3.2
				C412.5,454.8,413.9,452.7,416.1,452.4z"/>
		</g>
		<g>
			<path fill="#433F5D" d="M544,583.3l21.5-8.2c2.4-0.9,5.2,0.3,6.1,2.7c0.9,2.4-0.3,5.2-2.7,6.1l-21.5,8.2
				c-2.4,0.9-5.2-0.3-6.1-2.7C540.3,586.9,541.5,584.2,544,583.3z"/>
		</g>
		<g>
			<path fill="#433F5D" d="M70.7,44.9l20.2-0.6c2.3-0.1,4.2,1.7,4.3,4c0.1,2.3-1.7,4.2-4,4.3L71,53.2c-2.3,0.1-4.2-1.7-4.3-4
				C66.6,46.9,68.4,44.9,70.7,44.9z"/>
		</g>
		<g>
			<path fill="#433F5D" d="M473.3,188.5l-2.6-13.7c-0.3-1.6,0.7-3.1,2.3-3.4c1.6-0.3,3.1,0.7,3.4,2.3l2.6,13.7
				c0.3,1.6-0.7,3.1-2.3,3.4C475.1,191.1,473.6,190.1,473.3,188.5z"/>
		</g>
		<g>
			<path fill="#433F5D" d="M244.6,466.8l16.8-6.8c1.9-0.8,4.1,0.2,4.9,2.1c0.8,1.9-0.2,4.1-2.1,4.9l-16.8,6.8
				c-1.9,0.8-4.1-0.2-4.9-2.1C241.8,469.8,242.7,467.6,244.6,466.8z"/>
		</g>
		<g>
			<path fill="#433F5D" d="M692.5,102.2l-13.9-2.5c-1.6-0.3-2.6-1.8-2.3-3.4c0.3-1.6,1.8-2.6,3.4-2.3l13.9,2.5
				c1.6,0.3,2.6,1.8,2.3,3.4C695.6,101.5,694.1,102.5,692.5,102.2z"/>
		</g>
		<g>
			<path fill="#433F5D" d="M205.9,579.6l-17,16.5c-1.9,1.9-5,1.8-6.9-0.1c-1.9-1.9-1.8-5,0.1-6.9l17-16.5c1.9-1.9,5-1.8,6.9,0.1
				C207.9,574.6,207.9,577.7,205.9,579.6z"/>
		</g>
		<g>
			<path fill="#433F5D" d="M433.4,675.7l-6.2-4.4c-0.7-0.5-0.9-1.5-0.4-2.2c0.5-0.7,1.5-0.9,2.2-0.4l6.2,4.4
				c0.7,0.5,0.9,1.5,0.4,2.2C435.1,676,434.1,676.2,433.4,675.7z"/>
		</g>
		<g>
			<path fill="#433F5D" d="M114.8,350.9l-9.1-5.1c-1-0.6-1.4-1.9-0.8-2.9c0.6-1,1.9-1.4,2.9-0.8l9.1,5.1c1,0.6,1.4,1.9,0.8,2.9
				C117.2,351.1,115.9,351.5,114.8,350.9z"/>
		</g>
		<g>
			<path fill="#433F5D" d="M557.4,667.6l16.4,17.1c1.9,1.9,1.8,5-0.1,6.9c-1.9,1.9-5,1.8-6.9-0.1l-16.4-17.1c-1.9-1.9-1.8-5,0.1-6.9
				C552.5,665.6,555.6,665.6,557.4,667.6z"/>
		</g>
		<g>
			<path fill="#433F5D" d="M447.6,226.9l-5.2,7.4c-0.6,0.8-1.8,1.1-2.6,0.5c-0.8-0.6-1.1-1.8-0.5-2.6l5.2-7.4
				c0.6-0.9,1.8-1.1,2.6-0.5C448,224.9,448.2,226.1,447.6,226.9z"/>
		</g>
		<g>
			<path fill="#433F5D" d="M113.8,672.1l-5.5-4.5c-0.6-0.5-0.7-1.4-0.2-2.1c0.5-0.6,1.4-0.7,2.1-0.2l5.5,4.5
				c0.6,0.5,0.7,1.4,0.2,2.1C115.4,672.6,114.5,672.7,113.8,672.1z"/>
		</g>
		<g>
			<path fill="#433F5D" d="M649.3,229.1l-2.1,8.3c-0.2,0.9-1.2,1.5-2.2,1.3c-0.9-0.2-1.5-1.2-1.3-2.2l2.1-8.3
				c0.2-0.9,1.2-1.5,2.1-1.3C649,227.2,649.6,228.1,649.3,229.1z"/>
		</g>
		<g>
			<path fill="#433F5D" d="M401,500.7l3.6-6.4c0.4-0.7,1.3-1,2.1-0.6c0.7,0.4,1,1.3,0.6,2.1l-3.6,6.4c-0.4,0.7-1.3,1-2.1,0.6
				C400.9,502.4,400.6,501.5,401,500.7z"/>
		</g>
		<g>
			<path fill="#433F5D" d="M294.9,644l-4.2,22.8c-0.5,2.6-3,4.3-5.6,3.9c-2.6-0.5-4.3-3-3.9-5.6l4.2-22.8c0.5-2.6,3-4.3,5.6-3.9
				C293.7,638.9,295.4,641.4,294.9,644z"/>
		</g>
		<g>
			<path fill="#E5C7C1" d="M673.1,374.8l6-2.2c0.7-0.2,1.4,0.1,1.7,0.8c0.3,0.7-0.1,1.4-0.8,1.7l-6,2.2c-0.7,0.3-1.4-0.1-1.7-0.8
				C672.1,375.8,672.4,375.1,673.1,374.8z"/>
		</g>
		<g>
			<path fill="#E5C7C1" d="M38.5,545.4l-16.9,15c-1.9,1.7-4.9,1.5-6.6-0.4c-1.7-1.9-1.5-4.9,0.4-6.6l16.9-15
				c1.9-1.7,4.9-1.5,6.6,0.4C40.6,540.7,40.4,543.7,38.5,545.4z"/>
		</g>
		<g>
			<path fill="#E5C7C1" d="M403.2,308.2l-2,18.6c-0.2,2.1-2.1,3.6-4.3,3.4c-2.1-0.2-3.6-2.1-3.4-4.3l2-18.6c0.2-2.1,2.1-3.6,4.3-3.4
				C402,304.1,403.5,306,403.2,308.2z"/>
		</g>
		<g>
			<path fill="#E5C7C1" d="M15.7,119l8,6.2c0.9,0.7,1.1,2,0.4,2.9c-0.7,0.9-2,1.1-2.9,0.4l-8-6.2c-0.9-0.7-1.1-2-0.4-2.9
				C13.5,118.5,14.8,118.3,15.7,119z"/>
		</g>
		<g>
			<path fill="#E5C7C1" d="M47,357.7l-6.1,21.1c-0.7,2.4-3.2,3.8-5.6,3.1c-2.4-0.7-3.8-3.2-3.1-5.6l6.1-21.1
				c0.7-2.4,3.2-3.8,5.6-3.1C46.3,352.8,47.7,355.3,47,357.7z"/>
		</g>
		<g>
			<path fill="#E5C7C1" d="M135.8,579.6l7.4,2.6c0.8,0.3,1.3,1.2,1,2.1c-0.3,0.8-1.2,1.3-2.1,1l-7.4-2.6c-0.8-0.3-1.3-1.2-1-2.1
				C134,579.7,134.9,579.3,135.8,579.6z"/>
		</g>
		<g>
			<path fill="#E5C7C1" d="M177.2,699l-9.8-3c-1.1-0.3-1.7-1.5-1.4-2.6c0.3-1.1,1.5-1.7,2.6-1.4l9.8,3c1.1,0.3,1.7,1.5,1.4,2.6
				C179.5,698.7,178.3,699.3,177.2,699z"/>
		</g>
		<g>
			<path fill="#E5C7C1" d="M500.2,685.5l-4.5,5.2c-0.5,0.6-1.4,0.7-2,0.1c-0.6-0.5-0.7-1.4-0.1-2l4.5-5.2c0.5-0.6,1.4-0.7,2-0.1
				C500.7,684,500.7,684.9,500.2,685.5z"/>
		</g>
		<g>
			<path fill="#E5C7C1" d="M17.9,193.8l2.5-6.6c0.3-0.7,1.1-1.1,1.9-0.8c0.7,0.3,1.1,1.1,0.8,1.9l-2.5,6.6c-0.3,0.7-1.1,1.1-1.9,0.8
				C18,195.4,17.6,194.6,17.9,193.8z"/>
		</g>
		<g>
			<path fill="#E5C7C1" d="M56.8,137.3l-0.2,6.4c0,0.7-0.6,1.3-1.4,1.3c-0.7,0-1.3-0.6-1.3-1.4l0.2-6.4c0-0.7,0.6-1.3,1.4-1.3
				C56.3,136,56.8,136.6,56.8,137.3z"/>
		</g>
		<g>
			<path fill="#E5C7C1" d="M569.9,24l-4,9.1c-0.5,1-1.7,1.5-2.7,1c-1-0.5-1.5-1.7-1-2.7l4-9.1c0.5-1,1.7-1.5,2.7-1
				C569.8,21.8,570.3,23,569.9,24z"/>
		</g>
		<g>
			<path fill="#E5C7C1" d="M556.6,281.5l10.7-3.2c1.2-0.4,2.5,0.3,2.9,1.6c0.4,1.2-0.3,2.5-1.6,2.9l-10.7,3.2
				c-1.2,0.4-2.5-0.3-2.9-1.6C554.7,283.2,555.4,281.9,556.6,281.5z"/>
		</g>
		<g>
			<path fill="#E5C7C1" d="M307,183.4l5.6,2.1c0.6,0.2,1,1,0.7,1.6c-0.2,0.6-1,1-1.6,0.7l-5.6-2.1c-0.6-0.2-1-1-0.7-1.6
				C305.6,183.5,306.3,183.2,307,183.4z"/>
		</g>
		<g>
			<path fill="#E5C7C1" d="M12.8,411.6l8,8.4c0.9,1,0.9,2.5-0.1,3.4c-1,0.9-2.5,0.9-3.4-0.1l-8-8.4c-0.9-1-0.9-2.5,0.1-3.4
				C10.4,410.6,11.9,410.6,12.8,411.6z"/>
		</g>
		<g>
			<path fill="#E5C7C1" d="M687.7,693.6l6.9-6.8c0.8-0.8,2.1-0.8,2.8,0c0.8,0.8,0.8,2.1,0,2.8l-6.9,6.8c-0.8,0.8-2.1,0.8-2.8,0
				C686.9,695.6,686.9,694.3,687.7,693.6z"/>
		</g>
		<g>
			<path fill="#E5C7C1" d="M593.5,442.7l7.3-0.3c0.8,0,1.5,0.6,1.6,1.4c0,0.8-0.6,1.5-1.4,1.6l-7.3,0.3c-0.8,0-1.5-0.6-1.6-1.4
				C592,443.4,592.7,442.7,593.5,442.7z"/>
		</g>
		<g>
			<path fill="#E5C7C1" d="M510.6,522.5l7.4-3.5c0.8-0.4,1.9,0,2.3,0.8c0.4,0.8,0,1.9-0.8,2.3l-7.4,3.5c-0.8,0.4-1.9,0-2.3-0.8
				C509.4,523.9,509.8,522.9,510.6,522.5z"/>
		</g>
		<g>
			<path fill="#E5C7C1" d="M75.8,241l16.1,5.6c1.8,0.6,2.8,2.6,2.2,4.5c-0.6,1.8-2.6,2.8-4.5,2.2l-16.1-5.6
				c-1.8-0.6-2.8-2.6-2.2-4.5C72,241.4,74,240.4,75.8,241z"/>
		</g>
		<g>
			<path fill="#E5C7C1" d="M145.2,246.2l0.9,8.9c0.1,1-0.6,1.9-1.7,2c-1,0.1-1.9-0.6-2-1.7l-0.9-8.9c-0.1-1,0.6-1.9,1.7-2
				C144.2,244.5,145.1,245.2,145.2,246.2z"/>
		</g>
		<g>
			<path fill="#E5C7C1" d="M452.5,536.7l-5.9-2.8c-0.7-0.3-1-1.1-0.6-1.8c0.3-0.7,1.1-1,1.8-0.6l5.9,2.8c0.7,0.3,1,1.1,0.6,1.8
				C454,536.8,453.1,537,452.5,536.7z"/>
		</g>
		<g>
			<path fill="#E5C7C1" d="M216.3,145l-16,3.3c-1.8,0.4-3.6-0.8-4-2.6c-0.4-1.8,0.8-3.6,2.6-4l16-3.3c1.8-0.4,3.6,0.8,4,2.6
				C219.3,142.8,218.2,144.6,216.3,145z"/>
		</g>
		<g>
			<path fill="#E5C7C1" d="M23.8,255l11.3,18c1.3,2,0.7,4.8-1.4,6c-2,1.3-4.8,0.7-6-1.4l-11.3-18c-1.3-2-0.7-4.8,1.4-6
				C19.8,252.4,22.5,253,23.8,255z"/>
		</g>
		<g>
			<path fill="#E5C7C1" d="M56.9,673.7l-5.6,22c-0.6,2.5-3.2,4-5.7,3.4c-2.5-0.6-4-3.2-3.4-5.7l5.6-22c0.6-2.5,3.2-4,5.7-3.4
				C56,668.6,57.5,671.2,56.9,673.7z"/>
		</g>
		<g>
			<path fill="#E5C7C1" d="M239.6,322.7l-11.7,5c-1.3,0.6-2.9,0-3.4-1.4c-0.6-1.3,0-2.9,1.4-3.4l11.7-5c1.3-0.6,2.9,0,3.4,1.4
				C241.5,320.6,240.9,322.1,239.6,322.7z"/>
		</g>
		<g>
			<path fill="#E5C7C1" d="M45.6,489.5l5.2,8.4c0.6,1,0.3,2.2-0.6,2.8c-0.9,0.6-2.2,0.3-2.8-0.6l-5.2-8.4c-0.6-1-0.3-2.2,0.6-2.8
				C43.8,488.3,45,488.6,45.6,489.5z"/>
		</g>
		<g>
			<path fill="#E5C7C1" d="M216,537.8l8.7-9.2c1-1,2.6-1.1,3.7-0.1c1,1,1.1,2.6,0.1,3.7l-8.7,9.2c-1,1-2.6,1.1-3.7,0.1
				C215.1,540.5,215,538.8,216,537.8z"/>
		</g>
		<g>
			<path fill="#E5C7C1" d="M179.1,317.8l-4.4-7.6c-0.5-0.9-0.2-2,0.7-2.5c0.9-0.5,2-0.2,2.5,0.7l4.4,7.6c0.5,0.9,0.2,2-0.7,2.5
				C180.7,319,179.6,318.7,179.1,317.8z"/>
		</g>
		<g>
			<path fill="#E5C7C1" d="M163.3,126.9l-19.3-3.3c-2.2-0.4-3.7-2.5-3.3-4.7c0.4-2.2,2.5-3.7,4.7-3.3l19.3,3.3
				c2.2,0.4,3.7,2.5,3.3,4.7C167.6,125.8,165.5,127.3,163.3,126.9z"/>
		</g>
		<g>
			<path fill="#E5C7C1" d="M671.7,167.7l-4.8-3.9c-0.5-0.5-0.6-1.3-0.2-1.8c0.4-0.6,1.3-0.6,1.8-0.2l4.8,3.9
				c0.5,0.5,0.6,1.3,0.2,1.8C673,168.1,672.2,168.2,671.7,167.7z"/>
		</g>
		<g>
			<path fill="#E5C7C1" d="M14.9,658.4l2.5,8.2c0.3,0.9-0.2,1.9-1.2,2.2c-0.9,0.3-1.9-0.2-2.2-1.2l-2.5-8.2
				c-0.3-0.9,0.3-1.9,1.2-2.2C13.6,656.9,14.6,657.4,14.9,658.4z"/>
		</g>
		<g>
			<path fill="#E5C7C1" d="M563.1,389.1l-3.4-6.9c-0.4-0.8-0.1-1.7,0.7-2.1c0.8-0.4,1.7-0.1,2.1,0.7l3.4,6.9
				c0.4,0.8,0.1,1.7-0.7,2.1C564.4,390.2,563.5,389.9,563.1,389.1z"/>
		</g>
		<g>
			<path fill="#E5C7C1" d="M191.3,194.1L177.3,180c-1.6-1.6-1.6-4.2,0-5.8c1.6-1.6,4.2-1.6,5.8,0l14,14.1c1.6,1.6,1.6,4.2,0,5.8
				C195.6,195.7,192.9,195.7,191.3,194.1z"/>
		</g>
		<g>
			<path fill="#E5C7C1" d="M470.1,120.1l4.6,15.4c0.5,1.7-0.5,3.6-2.2,4.1c-1.8,0.5-3.6-0.5-4.1-2.2l-4.6-15.4
				c-0.5-1.8,0.5-3.6,2.2-4.1C467.7,117.3,469.5,118.3,470.1,120.1z"/>
		</g>
		<g>
			<path fill="#E5C7C1" d="M47.2,427.5l8.2-3.1c0.9-0.3,2,0.1,2.3,1.1c0.3,0.9-0.1,2-1.1,2.3l-8.2,3c-0.9,0.3-2-0.1-2.3-1.1
				C45.8,428.8,46.3,427.8,47.2,427.5z"/>
		</g>
		<g>
			<path fill="#E5C7C1" d="M604.4,235l-14.5,15c-1.7,1.7-4.4,1.8-6.1,0.1c-1.7-1.7-1.8-4.4-0.1-6.1l14.5-15c1.7-1.7,4.4-1.8,6.1-0.1
				C606,230.6,606,233.3,604.4,235z"/>
		</g>
		<g>
			<path fill="#E5C7C1" d="M299.2,414.6l9.7-6.6c1.1-0.8,2.6-0.5,3.4,0.6c0.8,1.1,0.5,2.6-0.6,3.4l-9.7,6.6
				c-1.1,0.8-2.6,0.5-3.4-0.6C297.9,416.8,298.1,415.3,299.2,414.6z"/>
		</g>
		<g>
			<path fill="#E5C7C1" d="M628.2,496.2l3.3-14.2c0.4-1.6,2-2.6,3.6-2.3c1.6,0.4,2.6,2,2.3,3.6l-3.3,14.2c-0.4,1.6-2,2.6-3.6,2.3
				C628.8,499.4,627.8,497.8,628.2,496.2z"/>
		</g>
		<g>
			<path fill="#E5C7C1" d="M599.3,531.9l-3.9,19.9c-0.4,2.3-2.6,3.8-4.9,3.3c-2.3-0.4-3.8-2.6-3.3-4.9l3.9-19.9
				c0.4-2.3,2.6-3.8,4.9-3.3C598.3,527.5,599.8,529.7,599.3,531.9z"/>
		</g>
		<g>
			<path fill="#E5C7C1" d="M198.3,89l-5-4.8c-0.6-0.5-0.6-1.5,0-2c0.5-0.6,1.5-0.6,2,0l5,4.8c0.6,0.5,0.6,1.5,0,2
				C199.8,89.6,198.9,89.6,198.3,89z"/>
		</g>
		<g>
			<path fill="#E5C7C1" d="M179.7,413.3l17.3-0.8c2-0.1,3.6,1.4,3.7,3.4c0.1,2-1.4,3.6-3.4,3.7l-17.3,0.8c-2,0.1-3.6-1.4-3.7-3.4
				C176.1,415.1,177.7,413.4,179.7,413.3z"/>
		</g>
		<g>
			<path fill="#D46391" d="M29.9,606.6l1.3,14.7c0.1,1.7-1.1,3.2-2.8,3.3c-1.7,0.1-3.2-1.1-3.3-2.8l-1.3-14.7
				c-0.1-1.7,1.1-3.2,2.8-3.3C28.3,603.7,29.8,604.9,29.9,606.6z"/>
		</g>
		<g>
			<path fill="#D46391" d="M581.8,642.4l-0.4-9.2c0-1.1,0.8-1.9,1.8-2c1.1,0,1.9,0.8,2,1.8l0.4,9.2c0,1.1-0.8,1.9-1.8,2
				C582.7,644.3,581.8,643.5,581.8,642.4z"/>
		</g>
		<g>
			<path fill="#D46391" d="M63.4,15.4l-9.2,3.9c-1.1,0.4-2.3-0.1-2.7-1.1c-0.4-1.1,0.1-2.3,1.1-2.7l9.2-3.9c1.1-0.4,2.3,0.1,2.7,1.1
				C64.9,13.7,64.4,14.9,63.4,15.4z"/>
		</g>
		<g>
			<path fill="#D46391" d="M687.5,229.1l6.5,1.1c0.7,0.1,1.2,0.8,1.1,1.6c-0.1,0.7-0.8,1.2-1.6,1.1l-6.5-1.1
				c-0.7-0.1-1.2-0.8-1.1-1.6C686.1,229.5,686.8,229,687.5,229.1z"/>
		</g>
		<g>
			<path fill="#D46391" d="M604.8,388.3l16-7.4c1.8-0.8,4-0.1,4.8,1.8c0.8,1.8,0.1,4-1.8,4.8l-16,7.4c-1.8,0.9-4,0.1-4.8-1.8
				C602.1,391.3,602.9,389.2,604.8,388.3z"/>
		</g>
		<g>
			<path fill="#D46391" d="M206.9,467.3l-10.8,0.4c-1.2,0-2.3-0.9-2.3-2.1c0-1.2,0.9-2.3,2.1-2.3l10.8-0.4c1.2,0,2.3,0.9,2.3,2.1
				C209.1,466.2,208.1,467.2,206.9,467.3z"/>
		</g>
		<g>
			<path fill="#D46391" d="M684.6,289.5l-8.2,4.3c-0.9,0.5-2.1,0.1-2.6-0.8c-0.5-0.9-0.1-2.1,0.8-2.6l8.2-4.3
				c0.9-0.5,2.1-0.1,2.6,0.8C685.9,287.8,685.5,289,684.6,289.5z"/>
		</g>
		<g>
			<path fill="#D46391" d="M499,579l-5.4-4.1c-0.6-0.5-0.7-1.3-0.3-2c0.5-0.6,1.3-0.7,2-0.3l5.4,4.1c0.6,0.5,0.7,1.3,0.3,2
				C500.5,579.3,499.7,579.4,499,579z"/>
		</g>
		<g>
			<path fill="#D46391" d="M540.2,462.6l0.4,17.6c0,2-1.5,3.7-3.6,3.7c-2,0-3.7-1.6-3.7-3.6l-0.4-17.6c0-2,1.5-3.7,3.6-3.7
				C538.5,459,540.1,460.6,540.2,462.6z"/>
		</g>
		<g>
			<path fill="#D46391" d="M353.3,23.9l-1.4-6.2c-0.2-0.7,0.3-1.4,1-1.6c0.7-0.2,1.4,0.3,1.6,1l1.4,6.2c0.2,0.7-0.3,1.4-1,1.6
				C354.2,25,353.4,24.6,353.3,23.9z"/>
		</g>
		<g>
			<path fill="#D46391" d="M507.5,25.4l-11.2,17.7c-1.3,2-4,2.6-6,1.3c-2-1.3-2.6-4-1.3-6l11.2-17.7c1.3-2,4-2.6,6-1.3
				C508.1,20.7,508.7,23.4,507.5,25.4z"/>
		</g>
		<g>
			<path fill="#D46391" d="M461,337.6l5.6-3c0.6-0.3,1.4-0.1,1.8,0.5c0.3,0.6,0.1,1.4-0.5,1.8l-5.6,3c-0.6,0.3-1.4,0.1-1.8-0.5
				C460.1,338.8,460.3,338,461,337.6z"/>
		</g>
		<g>
			<path fill="#D46391" d="M349.6,171.8l15-2c1.7-0.2,3.3,1,3.5,2.7c0.2,1.7-1,3.3-2.7,3.5l-15,2c-1.7,0.2-3.3-1-3.5-2.7
				C346.7,173.6,347.9,172,349.6,171.8z"/>
		</g>
		<g>
			<path fill="#D46391" d="M439.2,299.1l5.8-8.6c0.7-1,2-1.2,3-0.6c1,0.7,1.2,2,0.6,3l-5.8,8.6c-0.7,1-2,1.2-3,0.6
				C438.8,301.4,438.5,300.1,439.2,299.1z"/>
		</g>
		<g>
			<path fill="#D46391" d="M347.8,293.6l8.2-12.8c0.9-1.5,2.9-1.9,4.3-0.9c1.5,0.9,1.9,2.9,0.9,4.3l-8.2,12.8
				c-0.9,1.5-2.9,1.9-4.3,0.9C347.3,297,346.9,295.1,347.8,293.6z"/>
		</g>
		<g>
			<path fill="#D46391" d="M217.8,669.2l3.1,6.2c0.4,0.7,0.1,1.6-0.6,1.9c-0.7,0.4-1.6,0.1-1.9-0.6l-3.1-6.2
				c-0.4-0.7-0.1-1.6,0.6-1.9C216.5,668.2,217.4,668.5,217.8,669.2z"/>
		</g>
		<g>
			<path fill="#D46391" d="M533.2,415l-5.2,10.8c-0.6,1.2-2.1,1.7-3.3,1.1c-1.2-0.6-1.7-2.1-1.1-3.3l5.2-10.8
				c0.6-1.2,2.1-1.7,3.3-1.1C533.3,412.3,533.8,413.8,533.2,415z"/>
		</g>
		<g>
			<path fill="#D46391" d="M381,663.5L363.4,678c-2,1.6-5,1.4-6.6-0.6c-1.6-2-1.4-5,0.6-6.6l17.5-14.4c2-1.6,5-1.4,6.6,0.6
				C383.3,659,383,661.9,381,663.5z"/>
		</g>
		<g>
			<path fill="#D46391" d="M75.2,302.3l9.2,0.3c1.1,0,1.9,0.9,1.8,2c0,1.1-0.9,1.9-2,1.8l-9.2-0.3c-1.1,0-1.9-0.9-1.8-2
				S74.2,302.2,75.2,302.3z"/>
		</g>
		<g>
			<path fill="#D46391" d="M640.3,323.2l0.6,18.5c0.1,2.1-1.6,3.9-3.7,3.9c-2.1,0.1-3.9-1.6-3.9-3.7l-0.6-18.5
				c-0.1-2.1,1.6-3.9,3.7-3.9C638.5,319.4,640.2,321.1,640.3,323.2z"/>
		</g>
		<g>
			<path fill="#D46391" d="M102.2,390.5l-22.9,4c-2.6,0.5-5.1-1.3-5.6-3.9c-0.5-2.6,1.3-5.1,3.9-5.6l22.9-4c2.6-0.5,5.1,1.3,5.6,3.9
				C106.6,387.5,104.8,390,102.2,390.5z"/>
		</g>
		<g>
			<path fill="#D46391" d="M246.2,176.4l2.8-5.5c0.3-0.6,1.1-0.9,1.7-0.5c0.6,0.3,0.9,1.1,0.5,1.7l-2.8,5.5
				c-0.3,0.6-1.1,0.9-1.7,0.5C246.1,177.8,245.9,177,246.2,176.4z"/>
		</g>
		<g>
			<path fill="#D46391" d="M114.3,525.6l-6.9,7.1c-0.8,0.8-2.1,0.8-2.9,0c-0.8-0.8-0.8-2.1,0-2.9l6.9-7.1c0.8-0.8,2.1-0.8,2.9,0
				C115.1,523.5,115.1,524.8,114.3,525.6z"/>
		</g>
		<g>
			<path fill="#D46391" d="M19.3,12.9l-2.3,13c-0.3,1.5-1.7,2.5-3.2,2.2c-1.5-0.3-2.5-1.7-2.2-3.2l2.3-13c0.3-1.5,1.7-2.5,3.2-2.2
				S19.5,11.4,19.3,12.9z"/>
		</g>
		<g>
			<path fill="#D46391" d="M78.2,634.1l-4.6-6.1c-0.5-0.7-0.4-1.7,0.3-2.2c0.7-0.5,1.7-0.4,2.2,0.3l4.6,6.1c0.5,0.7,0.4,1.7-0.3,2.2
				C79.7,634.9,78.7,634.8,78.2,634.1z"/>
		</g>
		<g>
			<path fill="#D46391" d="M523.3,336.9l-14,10.7c-1.6,1.2-3.9,0.9-5.1-0.7c-1.2-1.6-0.9-3.9,0.7-5.1l14-10.7
				c1.6-1.2,3.9-0.9,5.1,0.7C525.2,333.4,524.9,335.6,523.3,336.9z"/>
		</g>
		<g>
			<path fill="#D46391" d="M274.8,691.4l-14.1,7.1c-1.6,0.8-3.6,0.2-4.4-1.5c-0.8-1.6-0.2-3.6,1.5-4.4l14.1-7.1
				c1.6-0.8,3.6-0.2,4.4,1.5C277.1,688.6,276.4,690.6,274.8,691.4z"/>
		</g>
		<g>
			<path fill="#D46391" d="M231.9,627.7l-6.3-0.7c-0.7-0.1-1.2-0.7-1.2-1.5c0.1-0.7,0.7-1.2,1.5-1.2l6.3,0.7
				c0.7,0.1,1.2,0.7,1.2,1.5C233.2,627.3,232.6,627.8,231.9,627.7z"/>
		</g>
		<g>
			<path fill="#D46391" d="M670.2,529.9l7.1-3.7c0.8-0.4,1.8-0.1,2.2,0.7c0.4,0.8,0.1,1.8-0.7,2.2l-7.1,3.7
				c-0.8,0.4-1.8,0.1-2.2-0.7C669.1,531.3,669.4,530.3,670.2,529.9z"/>
		</g>
		<g>
			<path fill="#D46391" d="M428.9,595.8l-2.6,5.6c-0.3,0.6-1,0.9-1.7,0.6c-0.6-0.3-0.9-1-0.6-1.7l2.6-5.6c0.3-0.6,1-0.9,1.7-0.6
				C428.9,594.4,429.2,595.2,428.9,595.8z"/>
		</g>
		<g>
			<path fill="#D46391" d="M490.5,629.4l10.8,0c1.2,0,2.2,1,2.2,2.2c0,1.2-1,2.2-2.2,2.2l-10.8,0c-1.2,0-2.2-1-2.2-2.2
				C488.3,630.4,489.3,629.4,490.5,629.4z"/>
		</g>
		<g>
			<path fill="#D46391" d="M694.9,422.9l-0.2-6.7c0-0.8,0.6-1.4,1.3-1.4c0.8,0,1.4,0.6,1.4,1.3l0.2,6.7c0,0.8-0.6,1.4-1.3,1.4
				C695.6,424.2,695,423.6,694.9,422.9z"/>
		</g>
		<g>
			<path fill="#D46391" d="M79.2,582.5l-10.1-1.8c-1.1-0.2-1.9-1.3-1.7-2.4c0.2-1.1,1.3-1.9,2.4-1.7l10,1.8c1.1,0.2,1.9,1.3,1.7,2.4
				C81.4,581.9,80.3,582.7,79.2,582.5z"/>
		</g>
		<g>
			<path fill="#D46391" d="M699.7,329.2l-9.8,11.8c-1.1,1.4-3.1,1.5-4.5,0.4c-1.3-1.1-1.5-3.1-0.4-4.5l9.8-11.8
				c1.1-1.3,3.1-1.5,4.5-0.4C700.7,325.9,700.8,327.9,699.7,329.2z"/>
		</g>
		<g>
			<path fill="#D46391" d="M640.7,637.1l-10.5,2.3c-1.2,0.3-2.4-0.5-2.6-1.7c-0.3-1.2,0.5-2.4,1.7-2.6l10.5-2.3
				c1.2-0.3,2.4,0.5,2.6,1.7C642.7,635.6,641.9,636.8,640.7,637.1z"/>
		</g>
		<g>
			<path fill="#D46391" d="M382.9,537.7l-20.3,4.5c-2.3,0.5-4.6-0.9-5.1-3.2c-0.5-2.3,0.9-4.6,3.2-5.1l20.3-4.5
				c2.3-0.5,4.6,0.9,5.1,3.2C386.6,534.8,385.2,537.1,382.9,537.7z"/>
		</g>
		<g>
			<path fill="#D46391" d="M460.9,422.3l-6.6,2c-0.7,0.2-1.5-0.2-1.8-0.9c-0.2-0.7,0.2-1.5,0.9-1.8l6.6-2c0.7-0.2,1.5,0.2,1.8,0.9
				C462,421.3,461.6,422.1,460.9,422.3z"/>
		</g>
		<g>
			<path fill="#D46391" d="M382.8,77.4l2.5,8.4c0.3,1-0.3,2-1.2,2.2c-1,0.3-2-0.3-2.2-1.2l-2.5-8.4c-0.3-1,0.3-2,1.2-2.2
				C381.5,75.9,382.5,76.4,382.8,77.4z"/>
		</g>
		<g>
			<path fill="#D46391" d="M381.1,374.1l-16.6,6c-1.9,0.7-4-0.3-4.7-2.2c-0.7-1.9,0.3-4,2.2-4.7l16.6-6c1.9-0.7,4,0.3,4.7,2.2
				C384,371.4,383,373.4,381.1,374.1z"/>
		</g>
		<g>
			<path fill="#D46391" d="M281.6,30.5L295.3,15c1.6-1.8,4.2-1.9,6-0.4c1.8,1.6,1.9,4.2,0.4,6L288,36.1c-1.6,1.8-4.2,1.9-6,0.4
				C280.2,34.9,280.1,32.2,281.6,30.5z"/>
		</g>
		<g>
			<path fill="#FFE4F9" d="M335.2,691.4l-6.5-0.2c-0.7,0-1.3-0.6-1.3-1.4c0-0.7,0.6-1.3,1.4-1.3l6.5,0.2c0.7,0,1.3,0.6,1.3,1.4
				C336.6,690.8,336,691.4,335.2,691.4z"/>
		</g>
		<g>
			<path fill="#FFE4F9" d="M296,605.9l16.8-3.8c1.9-0.4,3.8,0.8,4.3,2.7c0.4,1.9-0.8,3.8-2.7,4.3l-16.8,3.8
				c-1.9,0.4-3.8-0.8-4.3-2.7C292.9,608.3,294.1,606.4,296,605.9z"/>
		</g>
		<g>
			<path fill="#FFE4F9" d="M26.9,326.1l4.2-5.7c0.5-0.6,1.4-0.8,2-0.3c0.6,0.5,0.8,1.4,0.3,2l-4.2,5.7c-0.5,0.6-1.4,0.8-2,0.3
				C26.6,327.6,26.4,326.7,26.9,326.1z"/>
		</g>
		<g>
			<path fill="#FFE4F9" d="M216.9,28.9l-3.3-6c-0.4-0.7-0.1-1.6,0.6-1.9c0.7-0.4,1.5-0.1,1.9,0.6l3.3,6c0.4,0.7,0.1,1.6-0.6,1.9
				C218.2,29.8,217.3,29.6,216.9,28.9z"/>
		</g>
		<g>
			<path fill="#FFE4F9" d="M303.8,118.9l-2,23.6c-0.2,2.7-2.6,4.7-5.3,4.5c-2.7-0.2-4.7-2.6-4.5-5.3l2-23.6c0.2-2.7,2.6-4.7,5.3-4.5
				C302.1,113.8,304.1,116.2,303.8,118.9z"/>
		</g>
		<g>
			<path fill="#FFE4F9" d="M414.1,34.4l-17.5,13.8c-2,1.6-4.9,1.2-6.5-0.8c-1.6-2-1.2-4.9,0.8-6.5l17.5-13.8c2-1.6,4.9-1.2,6.5,0.8
				C416.5,29.9,416.1,32.8,414.1,34.4z"/>
		</g>
		<g>
			<path fill="#FFE4F9" d="M66.1,190.8l3.4,7c0.4,0.8,0.1,1.8-0.7,2.1c-0.8,0.4-1.8,0.1-2.1-0.7l-3.4-7c-0.4-0.8-0.1-1.8,0.7-2.1
				C64.7,189.7,65.7,190,66.1,190.8z"/>
		</g>
		<g>
			<path fill="#FFE4F9" d="M329.3,473.7l-6.7,15.7c-0.8,1.8-2.8,2.6-4.6,1.9c-1.8-0.8-2.6-2.8-1.9-4.6l6.7-15.7
				c0.8-1.8,2.8-2.6,4.6-1.9C329.2,469.8,330.1,471.9,329.3,473.7z"/>
		</g>
		<g>
			<path fill="#FFE4F9" d="M249.3,116.3l-0.6,6.4c-0.1,0.7-0.7,1.3-1.5,1.2c-0.7-0.1-1.3-0.7-1.2-1.5l0.6-6.4
				c0.1-0.7,0.7-1.3,1.5-1.2C248.8,114.9,249.4,115.5,249.3,116.3z"/>
		</g>
		<g>
			<path fill="#FFE4F9" d="M369,430.1l12.5,16c1.4,1.8,1.1,4.5-0.7,5.9c-1.8,1.4-4.5,1.1-5.9-0.7l-12.5-16c-1.4-1.8-1.1-4.5,0.7-5.9
				C365,428,367.6,428.3,369,430.1z"/>
		</g>
		<g>
			<path fill="#FFE4F9" d="M690.7,593.6l-14.3-3.5c-1.6-0.4-2.6-2.1-2.2-3.7c0.4-1.6,2.1-2.6,3.7-2.2l14.3,3.5
				c1.6,0.4,2.6,2.1,2.2,3.7C694,593,692.3,594,690.7,593.6z"/>
		</g>
		<g>
			<path fill="#FFE4F9" d="M162.6,382.1l-12.8-9.8c-1.5-1.1-1.7-3.2-0.6-4.7c1.1-1.5,3.2-1.7,4.7-0.6l12.8,9.8
				c1.5,1.1,1.7,3.2,0.6,4.7C166.2,383,164.1,383.2,162.6,382.1z"/>
		</g>
		<g>
			<path fill="#FFE4F9" d="M284.9,363.9l-2.1-6.2c-0.2-0.7,0.1-1.5,0.8-1.7c0.7-0.2,1.5,0.1,1.7,0.8l2.1,6.2
				c0.2,0.7-0.1,1.5-0.8,1.7C286,365,285.2,364.6,284.9,363.9z"/>
		</g>
		<g>
			<path fill="#FFE4F9" d="M492.2,273.4l3.8,5c0.4,0.6,0.3,1.4-0.2,1.8c-0.6,0.4-1.4,0.3-1.8-0.2l-3.8-5c-0.4-0.6-0.3-1.4,0.2-1.8
				C490.9,272.7,491.8,272.9,492.2,273.4z"/>
		</g>
		<g>
			<path fill="#FFE4F9" d="M136.8,44.2l12.6-19c1.4-2.2,4.4-2.8,6.5-1.3c2.2,1.4,2.8,4.4,1.3,6.5l-12.6,19c-1.4,2.2-4.4,2.8-6.5,1.3
				C135.9,49.3,135.3,46.4,136.8,44.2z"/>
		</g>
		<g>
			<path fill="#FFE4F9" d="M397.9,210l-7.1-1.5c-0.8-0.2-1.3-1-1.2-1.8c0.2-0.8,1-1.3,1.8-1.2l7.1,1.5c0.8,0.2,1.3,1,1.2,1.8
				C399.5,209.6,398.7,210.2,397.9,210z"/>
		</g>
		<g>
			<path fill="#FFE4F9" d="M166.3,497.4l5,16.6c0.6,1.9-0.5,3.9-2.4,4.4c-1.9,0.6-3.9-0.5-4.4-2.4l-5-16.6c-0.6-1.9,0.5-3.9,2.4-4.4
				C163.7,494.4,165.7,495.5,166.3,497.4z"/>
		</g>
		<g>
			<path fill="#FFE4F9" d="M636.4,682l18.2-5.5c2.1-0.6,4.3,0.5,4.9,2.6c0.6,2.1-0.5,4.3-2.6,4.9l-18.2,5.5
				c-2.1,0.6-4.3-0.5-4.9-2.6C633.1,684.8,634.3,682.6,636.4,682z"/>
		</g>
		<g>
			<path fill="#FFE4F9" d="M555.8,228L537,216c-2.1-1.4-2.8-4.2-1.4-6.4c1.4-2.1,4.2-2.8,6.4-1.4l18.8,12c2.1,1.4,2.8,4.2,1.4,6.4
				C560.7,228.7,557.9,229.3,555.8,228z"/>
		</g>
		<g>
			<path fill="#FFE4F9" d="M490.5,391.7l-13-7.2c-1.5-0.8-2-2.7-1.2-4.2c0.8-1.5,2.7-2,4.2-1.2l13,7.2c1.5,0.8,2,2.7,1.2,4.2
				C493.9,392,492,392.5,490.5,391.7z"/>
		</g>
		<g>
			<path fill="#FFE4F9" d="M284.5,290.2l2.1,7.5c0.2,0.9-0.3,1.8-1.1,2c-0.9,0.2-1.7-0.3-2-1.1l-2.1-7.5c-0.2-0.9,0.3-1.8,1.1-2
				C283.4,288.8,284.3,289.3,284.5,290.2z"/>
		</g>
		<g>
			<path fill="#FFE4F9" d="M261.3,573.4l6.4,17.2c0.7,2-0.3,4.1-2.2,4.9c-2,0.7-4.1-0.3-4.9-2.2l-6.4-17.2c-0.7-2,0.3-4.1,2.2-4.9
				C258.4,570.5,260.6,571.5,261.3,573.4z"/>
		</g>
		<g>
			<path fill="#FFE4F9" d="M284,524.3l8.5,4.8c1,0.5,1.3,1.8,0.8,2.8c-0.5,1-1.8,1.3-2.7,0.8l-8.5-4.8c-1-0.5-1.3-1.8-0.8-2.8
				C281.8,524.1,283.1,523.8,284,524.3z"/>
		</g>
		<g>
			<path fill="#FFE4F9" d="M200.1,234.4l-5.1,6c-0.6,0.7-1.6,0.8-2.3,0.2c-0.7-0.6-0.8-1.6-0.2-2.3l5.1-6c0.6-0.7,1.6-0.8,2.3-0.2
				C200.6,232.7,200.7,233.7,200.1,234.4z"/>
		</g>
		<g>
			<path fill="#FFE4F9" d="M525.6,165.9l8.5-5.5c1-0.6,2.3-0.3,2.9,0.6c0.6,1,0.3,2.3-0.6,2.9l-8.5,5.5c-1,0.6-2.3,0.3-2.9-0.6
				C524.3,167.8,524.6,166.5,525.6,165.9z"/>
		</g>
		<g>
			<path fill="#FFE4F9" d="M576.2,502.2l-3.3-15.4c-0.4-1.8,0.7-3.5,2.5-3.9c1.8-0.4,3.5,0.7,3.9,2.5l3.3,15.4
				c0.4,1.8-0.7,3.5-2.5,3.9C578.3,505.1,576.5,504,576.2,502.2z"/>
		</g>
		<g>
			<path fill="#FFE4F9" d="M620,582.8l16-5.7c1.8-0.7,3.8,0.3,4.5,2.1c0.7,1.8-0.3,3.8-2.1,4.5l-16,5.7c-1.8,0.7-3.8-0.3-4.5-2.1
				C617.2,585.5,618.2,583.5,620,582.8z"/>
		</g>
		<g>
			<path fill="#FFE4F9" d="M661.1,427.3l-12.1-2.1c-1.4-0.2-2.3-1.6-2.1-2.9c0.2-1.4,1.6-2.3,2.9-2.1l12.1,2.1
				c1.4,0.2,2.3,1.6,2.1,2.9C663.8,426.6,662.5,427.6,661.1,427.3z"/>
		</g>
		<g>
			<path fill="#FFE4F9" d="M432.8,84.8l8.1-12.8c0.9-1.5,2.9-1.9,4.3-1c1.5,0.9,1.9,2.9,1,4.3l-8.1,12.8c-0.9,1.5-2.9,1.9-4.3,1
				C432.4,88.2,431.9,86.3,432.8,84.8z"/>
		</g>
		<g>
			<path fill="#FFE4F9" d="M365.1,134.9l3.1-15.6c0.4-1.8,2.1-2.9,3.9-2.6c1.8,0.4,2.9,2.1,2.6,3.9l-3.1,15.6
				c-0.4,1.8-2.1,2.9-3.9,2.6C365.9,138.4,364.8,136.6,365.1,134.9z"/>
		</g>
		<g>
			<path fill="#FFE4F9" d="M686.9,638.6l1.6,6.1c0.2,0.7-0.2,1.4-0.9,1.6c-0.7,0.2-1.4-0.2-1.6-0.9l-1.6-6.1
				c-0.2-0.7,0.2-1.4,0.9-1.6C686,637.5,686.7,637.9,686.9,638.6z"/>
		</g>
		<g>
			<path fill="#FFE4F9" d="M612.3,183.8l-21.2,3c-2.4,0.3-4.6-1.3-5-3.8c-0.3-2.4,1.3-4.6,3.8-5l21.2-3c2.4-0.3,4.6,1.3,5,3.8
				C616.4,181.2,614.7,183.4,612.3,183.8z"/>
		</g>
		<g>
			<path fill="#FFE4F9" d="M668.1,24l-13,10.4c-1.5,1.2-3.7,0.9-4.8-0.5c-1.2-1.5-0.9-3.7,0.5-4.8l13-10.4c1.5-1.2,3.7-0.9,4.8,0.5
				C669.8,20.6,669.6,22.8,668.1,24z"/>
		</g>
		<g>
			<path fill="#FFE4F9" d="M133.7,438.7l6.4,3.3c0.7,0.4,1,1.3,0.6,2c-0.4,0.7-1.3,1-2,0.6l-6.4-3.3c-0.7-0.4-1-1.3-0.6-2
				C132,438.6,132.9,438.4,133.7,438.7z"/>
		</g>
		<g>
			<path fill="#FFE4F9" d="M417,162.1l10.1-8.4c1.2-1,2.9-0.8,3.8,0.4c1,1.2,0.8,2.9-0.4,3.8l-10.1,8.4c-1.2,1-2.9,0.8-3.8-0.4
				C415.7,164.8,415.9,163.1,417,162.1z"/>
		</g>
		<g>
			<path fill="#FFE4F9" d="M88.3,98.2l-12.8,1.3c-1.5,0.1-2.8-0.9-2.9-2.4c-0.1-1.5,0.9-2.8,2.4-2.9l12.8-1.3
				c1.5-0.1,2.8,0.9,2.9,2.4C90.8,96.7,89.7,98,88.3,98.2z"/>
		</g>
		<g>
			<path fill="#FFE4F9" d="M687.1,468.7l-5.9,3.4c-0.7,0.4-1.5,0.2-1.9-0.5c-0.4-0.7-0.2-1.5,0.5-1.9l5.9-3.4
				c0.7-0.4,1.5-0.2,1.9,0.5C688,467.4,687.8,468.3,687.1,468.7z"/>
		</g>
		<g>
			<path fill="#FFE4F9" d="M338.4,583.4l3.7-20.4c0.4-2.3,2.6-3.9,5-3.5c2.3,0.4,3.9,2.6,3.5,5l-3.7,20.4c-0.4,2.3-2.6,3.9-5,3.5
				C339.5,587.9,338,585.7,338.4,583.4z"/>
		</g>
		<g>
			<path fill="#FFE4F9" d="M29.8,61l-8.1,10.5c-0.9,1.2-2.6,1.4-3.8,0.5c-1.2-0.9-1.4-2.6-0.5-3.8l8.1-10.5c0.9-1.2,2.6-1.4,3.8-0.5
				C30.5,58,30.7,59.8,29.8,61z"/>
		</g>
		<g>
			<path fill="#FFE4F9" d="M267.8,217.7l5.7,4.2c0.7,0.5,0.8,1.4,0.3,2c-0.5,0.7-1.4,0.8-2,0.3l-5.7-4.2c-0.7-0.5-0.8-1.4-0.3-2
				C266.2,217.4,267.1,217.2,267.8,217.7z"/>
		</g>
	</g>
</g>
</svg>
