<?xml version="1.0" encoding="utf-8"?>
<!-- Generator: Adobe Illustrator 21.0.0, SVG Export Plug-In . SVG Version: 6.00 Build 0)  -->
<svg version="1.1" id="DESIGNED_BY_FREEPIK" xmlns="http://www.w3.org/2000/svg" xmlns:xlink="http://www.w3.org/1999/xlink"
	 x="0px" y="0px" viewBox="0 0 540.5 118.6" style="enable-background:new 0 0 540.5 118.6;" xml:space="preserve">
<style type="text/css">
	.st0{fill:#456990;stroke:#000000;stroke-width:0.25;stroke-miterlimit:10;}
	.st1{fill:#F45B69;}
	.st2{fill:#FFFFFF;}
</style>
<polygon class="st0" points="102.6,88.9 102.6,29.7 51.3,0.1 0.1,29.7 0.1,88.9 51.3,118.4 "/>
<polygon class="st1" points="92.5,83 92.5,35.5 51.3,11.8 10.2,35.5 10.2,83 51.3,106.8 "/>
<g>
	<path class="st2" d="M70.7,34.3L55.2,69.9h15.3v14.4H32.8l15.5-35.6H32V34.3H70.7z"/>
</g>
<g>
	<path class="st2" d="M137,60.7l-7.6-2.6c1.9-5.7,3.4-12.9,4.2-22l7.1,1C140.4,46.1,139.1,53.8,137,60.7z M161.7,49.4l-7.3,3.4
		c-0.6-2.9-1.9-6.8-3.7-11.3v56.3h-9.8v-78h9.8v15.7l4.5-1.9C158.3,39.9,160.5,45.1,161.7,49.4z M208.2,66.6h-19.7
		c4.5,11.3,11.6,18.7,21.5,22.4c-1.1,1-2.4,2.4-3.9,4.4c-1.5,1.9-2.4,3.6-3.2,5c-9.7-4.5-17-12.8-21.8-24.5
		c-3.7,10.5-10.8,18.7-21.3,24.7c-1.3-2.3-3.7-4.8-7.1-7.7c10.8-5.3,17.6-13.4,20.3-24.2h-16.6V57h17.9c0.2-1.8,0.3-4.4,0.3-7.7
		v-7.6h-14.4v-9.2h14.4V19.9h10v12.6h18.2V57h5.2v9.5H208.2z M184.8,41.7v7.7c0,2.4-0.2,5-0.3,7.6h8.7V41.7H184.8z"/>
	<path class="st2" d="M245.8,54.8l1.3,9.4L236.3,67v19.4c0,2.6-0.3,4.5-0.8,5.8c-0.5,1.3-1.6,2.4-2.9,3.1c-2.3,1.3-6.6,1.9-12.9,1.9
		c-0.2-2.4-1.1-5.7-2.9-9.4c2.3,0.2,4.8,0.2,8.1,0.2c1,0,1.6-0.5,1.6-1.6V69.8l-8.9,2.3l-2.7-9.8c2.7-0.5,6.6-1.5,11.6-2.7V45.1
		h-10.8v-9.4h10.8V20.1h10.2v15.8h9.5v9.4h-9.5v11.9L245.8,54.8z M292.3,26.2v10H279V85c0,2.9-0.3,5.2-1.1,6.8s-2.1,2.9-4,3.7
		c-2.7,1.3-8.4,2.1-17.1,2.1c-0.5-3.2-1.8-6.8-3.9-10.8c2.6,0.2,6.9,0.3,13.1,0.3c1.5,0,2.3-0.6,2.3-2.1V36.2h-21.1v-10H292.3z"/>
	<path class="st2" d="M357.3,38.8h17c0,2.1-0.2,3.7-0.2,4.4c-0.3,17.9-0.8,30.4-1.3,37.1c-0.5,6.9-1.5,11.3-2.7,13.1
		c-1.5,2.1-3.7,3.6-6.6,4.2c-1.6,0.3-5.2,0.5-10.3,0.3c-0.2-3.4-1.1-6.6-2.9-9.5c3.1,0.3,5.8,0.5,8.4,0.5c1.3,0,2.3-0.5,2.9-1.5
		c1-1.1,1.6-4.7,2.1-10.5s0.8-15.5,1-28.9H357c-0.6,12.3-2.3,22.6-5,30.7s-7.4,14.9-14,20c-1.3-2.3-3.2-4.5-5.8-6.6
		c-18.4,1.8-29.5,2.9-33.3,3.2l-1.1-8.4c6.6-0.5,12.3-0.8,17-1.1v-5h-14.9v-7.1h14.9v-3.2h-14.4V44.6h14.4v-3.2h-16.3v-7.3h16.5
		v-3.4c-5.3,0.3-10,0.6-14.2,0.6c-0.3-2.3-1.1-4.7-2.3-7.1c15.3-0.8,27.4-2.1,36-4l4.4,7.4c-4.7,1-9.8,1.8-15.2,2.3v4h16.1v4.5h7.9
		c0-3.7,0.2-9.5,0.2-17.4h9.5C357.5,29.3,357.5,35.1,357.3,38.8z M308.4,50.9v3.7h6.5v-3.7H308.4z M308.4,64.3h6.5v-3.9h-6.5V64.3z
		 M323.9,80.8V85c3.7-0.3,8.6-0.6,14.5-1.1c3.1-4.4,5.3-9.4,6.6-15.2s2.1-12.8,2.4-20.8h-7.6v-6.5h-16.1v3.2h14.9v25.8h-14.9v3.2
		h15.2v7.1H323.9z M323.9,54.6h6.5v-3.7h-6.5V54.6z M330.5,60.4h-6.5v3.7h6.5V60.4z"/>
	<path class="st2" d="M413.2,56.9l1.3,8.9c-1.1,0.3-2.6,0.8-4.7,1.5c-1.9,0.6-3.4,1.1-4.4,1.5v29.7h-9.2V71.1
		c-1,0.3-2.4,0.8-4.2,1.3c-1.8,0.5-3.2,1-4.7,1.5c-1.3,0.5-2.6,0.8-3.7,1l-2.4-9.4c2.6-0.5,7.6-1.8,15-3.9v-16h-5.7
		c-0.8,4-1.9,7.6-3.1,10.7c-1.5-1.3-3.9-2.7-7.1-4.5c2.3-5.8,3.9-14.9,4.8-27l8.2,1.5c-0.3,3.2-0.8,6.5-1.3,10h3.9V20.1h9.2v16h6.9
		v9.5h-6.9v13.6L413.2,56.9z M428,32.8h31.5c0,2.3-0.2,3.9-0.2,4.5c-0.8,18.7-1.6,32-2.6,40c-1,8.1-2.1,13.1-3.7,15.2
		c-1.6,2.4-3.7,3.7-6.5,4.4c-2.1,0.3-5.2,0.5-9.4,0.3c-0.3-3.6-1.3-6.8-2.7-9.7c2.1,0.2,4.5,0.3,7.4,0.3c1.3,0,2.3-0.5,3.1-1.6
		c2.1-2.7,3.7-17.4,4.8-44.1h-0.5c-2.3,11.5-5.5,22-10,31.6c-4.4,9.7-9.8,17.1-16.1,22.3c-2.3-2.3-5-4.2-8.2-5.8
		c6.3-4.5,11.8-11.1,16.1-19.7c4.4-8.6,7.6-18.1,9.8-28.6h-3.9c-1.9,7.3-4.7,14.2-8.1,20.8c-3.4,6.8-7.1,11.9-11.1,15.8
		c-2.1-2.1-4.7-4-7.6-5.7c3.9-3.1,7.4-7.4,10.7-13.1c3.2-5.7,5.8-11.6,7.7-18.1h-4.2c-2.6,6.1-5.5,11.1-8.6,15
		c-1.6-1.6-4.2-3.6-7.6-5.5c6.3-6.9,10.8-17.4,13.7-31.5l9,1.6C430.5,24.3,429.5,28,428,32.8z"/>
	<path class="st2" d="M468.7,23.1h71.4V98h-9.7V95h-52.3V98h-9.4L468.7,23.1L468.7,23.1z M477.9,86.3h52.3V32h-52.3V86.3z
		 M523.8,66.2L528,69c-2.4,1.9-5.3,3.9-8.6,5.7c3.7,1.6,6.9,2.7,9.8,3.4c-2.1,1.9-3.9,4-5,6.3c-6.5-2.1-12.1-5.3-17-9.5v9.4h-8.7
		v-8.7c-4.2,2.6-8.9,4.8-14.4,6.9c-1.5-2.4-3.2-4.5-5.3-6.3c7.7-2.3,14-5.2,19.2-8.9H485V52.8h38.6v13.4H523.8z M527.5,45.1v5.7
		h-46.7v-5.7h18.7v-3.2h-14.9v-5.3h14.9V33h9v3.6h15.5v5.3h-15.5v3.2H527.5z M493.4,58.3v4.2h21.6v-4.2H493.4z M509.3,67.5l-0.3,0.3
		c1.6,1.5,3.1,2.7,4.7,3.7l5.3-3.9h-9.7V67.5z"/>
</g>
</svg>
