<?xml version="1.0" encoding="utf-8"?>
<!-- Generator: Adobe Illustrator 21.0.0, SVG Export Plug-In . SVG Version: 6.00 Build 0)  -->
<svg version="1.2" baseProfile="tiny" id="objects" xmlns="http://www.w3.org/2000/svg" xmlns:xlink="http://www.w3.org/1999/xlink"
	 x="0px" y="0px" viewBox="0 0 434 521.8" overflow="scroll" xml:space="preserve">
<g>
	<g>
		<g>
			<rect y="298" fill-rule="evenodd" fill="#0DA0F6" width="434" height="223.8"/>
			<path fill="#0D67F6" d="M419,313v193.8H15V313H419 M434,298H0v223.8h434V298L434,298z"/>
		</g>
		<circle fill-rule="evenodd" fill="#FFFFFF" cx="52" cy="324" r="5"/>
		<circle fill-rule="evenodd" fill="#FFFFFF" cx="384" cy="324" r="5"/>
		<g>
			<g>
				<path fill="#878787" d="M55.5,0v320c0,1.9-1.6,3.5-3.5,3.5c-1.9,0-3.5-1.6-3.5-3.5V0H55.5z"/>
				<path fill-rule="evenodd" fill="#706F6F" d="M62.7,294c0,2.2-1.1,4-2.6,4H43.8c-1.4,0-2.6-1.8-2.6-4l0,0c0-2.2,1.1-4,2.6-4h16.3
					C61.6,290,62.7,291.8,62.7,294L62.7,294z"/>
			</g>
			<g>
				<path fill="#878787" d="M387.5,0v320c0,1.9-1.6,3.5-3.5,3.5c-1.9,0-3.5-1.6-3.5-3.5V0H387.5z"/>
				<path fill-rule="evenodd" fill="#706F6F" d="M394.7,294c0,2.2-1.1,4-2.6,4h-16.3c-1.4,0-2.6-1.8-2.6-4l0,0c0-2.2,1.1-4,2.6-4
					h16.3C393.6,290,394.7,291.8,394.7,294L394.7,294z"/>
			</g>
		</g>
	</g>
</g>
</svg>
