<?xml version="1.0" encoding="utf-8"?>
<!-- Generator: Adobe Illustrator 21.0.0, SVG Export Plug-In . SVG Version: 6.00 Build 0)  -->
<svg version="1.1" id="Capa_1" xmlns="http://www.w3.org/2000/svg" xmlns:xlink="http://www.w3.org/1999/xlink" x="0px" y="0px"
	 viewBox="0 0 286.4 286.4" style="enable-background:new 0 0 286.4 286.4;" xml:space="preserve">
<style type="text/css">
	.st0{fill:#FFFFFF;}
</style>
<g id="Volume_2">
	<path class="st0" d="M233.6,26.8l-33.4,28.5c25.7,21.1,42,52.6,42,87.9c0,35.3-16.3,66.9-42,87.9l33.4,28.5
		c32.3-28.9,52.7-70.3,52.7-116.4C286.4,97,266,55.6,233.6,26.8z M177.7,74.5L143,104.2c15.1,6.8,27.2,21.7,27.2,39
		s-12.1,32.2-27.2,39l34.7,29.6c21.3-15.7,36.1-40.6,36.1-68.7C213.8,115.1,199,90.2,177.7,74.5z M108.7,48.3L44.7,98.4H17.9
		C4.7,98.4,0,103.3,0,116.3V170c0,13.1,5,17.9,17.9,17.9h26.8l63.9,50.1c7.7,4.9,16.6,6.5,16.6-7.4v-175
		C125.2,41.8,116.3,43.4,108.7,48.3z"/>
</g>
</svg>
