<?xml version="1.0" encoding="utf-8"?>
<!-- Generator: Adobe Illustrator 21.0.0, SVG Export Plug-In . SVG Version: 6.00 Build 0)  -->
<svg version="1.2" baseProfile="tiny" id="圖層_1"
	 xmlns="http://www.w3.org/2000/svg" xmlns:xlink="http://www.w3.org/1999/xlink" x="0px" y="0px" viewBox="0 0 60.5 123.5"
	 overflow="scroll" xml:space="preserve">
<g>
	<path fill="#82E650" d="M15.1,19.7c2.9,0.9,6.2,0.3,9.2-1.5c3.1-1.9,5.4-4.6,6.9-7.8c-2.7-1.4-6-1.5-9.3,0.3
		C18.6,12.4,16.2,15.9,15.1,19.7z"/>
	<path fill="#82E650" d="M15.1,19.7c1.1-3.8,1.5-7.9,0.7-11.7c-0.8-3.8-2.7-6.7-5.5-8C8.2,4.1,7.5,8.8,8.6,12.7
		C9.7,16.6,12.2,18.9,15.1,19.7z"/>
	<path fill="#82E650" d="M47.7,104.7c-0.6-3.5-2.2-6.6-4.5-9c-2.3,2-3.7,5-3.3,8.6c0.2,2,1,3.9,2.1,5.6c-3.1-2.7-6-5.7-8.7-8.8
		c2-1.9,3.2-4.7,3.4-8c0.2-3.5-0.8-6.8-2.5-9.6c-2.6,1.5-4.6,4.1-5,7.7c-0.2,1.9,0.1,4,0.9,5.8c-2.5-3.2-4.7-6.6-6.7-10.2
		c2.4-1.5,4.1-4,4.9-7.1c0.9-3.4,0.6-6.8-0.6-9.9c-2.8,1-5.3,3.1-6.4,6.6c-0.6,1.9-0.7,4-0.3,6c-1.8-3.7-3.3-7.5-4.6-11.4
		c2.6-1,4.8-3.1,6.2-6c1.5-3.1,1.9-6.5,1.4-9.8c-3,0.4-5.8,2.1-7.5,5.2c-1,1.7-1.4,3.8-1.4,5.8c-1-3.9-1.8-8-2.3-12
		c2.8-0.5,5.3-2.1,7.3-4.7c2.1-2.8,3.1-6.1,3.3-9.4c-3-0.2-6.1,0.9-8.4,3.7c-1.3,1.5-2.1,3.4-2.5,5.5c-0.2-4.1-0.2-8.2,0.1-12.4
		c2.8,0.1,5.6-1.1,8-3.2c2.6-2.4,4.3-5.4,5.1-8.7c-2.9-0.8-6.2-0.3-9,2c-1.5,1.3-2.7,3-3.6,4.9c0.6-4.1,1.4-8.2,2.6-12.2l-1.3-0.4
		c-1.2,4.1-2.1,8.3-2.7,12.4c-0.3-2.1-0.8-4.1-1.7-6c-1.6-3.5-4.1-5.8-7-6.5c-1.2,4.3-0.9,8.9,1,12.4c1.7,3.2,4.4,4.9,7.1,5.3
		c-0.3,4.1-0.4,8.3-0.2,12.4c-0.7-1.9-1.6-3.8-2.8-5.4C6,41,3.1,39.2,0,39.2c-0.3,4.3,1,8.7,3.5,11.7c2.3,2.8,5.2,3.9,8,3.7
		c0.5,4.1,1.3,8.1,2.3,12c-1-1.7-2.3-3.3-3.8-4.7c-2.8-2.5-6-3.6-9-3.1c0.6,4.3,2.6,8.3,5.7,10.7c2.8,2.3,5.9,2.8,8.6,2.1
		c1.3,3.9,2.8,7.7,4.6,11.4c-1.3-1.5-2.9-2.8-4.7-3.9c-3.3-1.9-6.6-2.4-9.4-1.3c1.4,4.1,4.2,7.6,7.7,9.4c3.2,1.7,6.3,1.6,8.8,0.3
		c2,3.6,4.3,7.1,6.8,10.4c-1.7-1.3-3.5-2.3-5.5-3c-3.6-1.2-6.9-1.1-9.5,0.6c2.2,3.7,5.6,6.7,9.4,7.8c3.5,1,6.6,0.3,8.8-1.4
		c2.7,3.2,5.7,6.2,8.9,9c-1.9-0.9-3.9-1.6-6-1.9c-3.8-0.5-7.1,0.3-9.3,2.4c2.9,3.3,6.9,5.5,10.9,5.9c3.7,0.4,6.6-0.9,8.4-3.1
		c4.5,3.5,9.4,6.6,14.6,9.2l0.6-1.2c-5.2-2.6-10-5.7-14.4-9.1C47.7,110.9,48.2,107.9,47.7,104.7z"/>
</g>
</svg>
