<?xml version="1.0" encoding="utf-8"?>
<!-- Generator: Adobe Illustrator 21.0.0, SVG Export Plug-In . SVG Version: 6.00 Build 0)  -->
<svg version="1.1" id="Capa_1" xmlns="http://www.w3.org/2000/svg" xmlns:xlink="http://www.w3.org/1999/xlink" x="0px" y="0px"
	 viewBox="0 0 286.3 286.3" style="enable-background:new 0 0 286.3 286.3;" xml:space="preserve">
<style type="text/css">
	.st0{fill:#FFFFFF;}
</style>
<g id="Volume_none">
	<path class="st0" d="M245.1,143.2l37-37.1c5.6-5.6,5.6-14.7,0-20.3L272,75.7c-5.6-5.6-14.7-5.6-20.2,0l-37,37.1l-37-37
		c-5.6-5.6-14.7-5.6-20.2,0l-10.1,10.1c-5.6,5.6-5.6,14.7,0,20.3l37,37.1l-37,37.1c-5.6,5.6-5.6,14.7,0,20.3l10.1,10.1
		c5.6,5.6,14.7,5.6,20.2,0l37-37.1l37,37c5.6,5.6,14.7,5.6,20.2,0l10.1-10.1c5.6-5.6,5.6-14.7,0-20.3L245.1,143.2z M108.7,48.3
		L44.7,98.4H17.9C4.7,98.4,0,103.2,0,116.3l0,26.4L0,170c0,13.1,5,17.9,17.9,17.9h26.8l63.9,50.1c7.7,4.9,16.6,6.5,16.6-7.4v-175
		C125.2,41.8,116.3,43.3,108.7,48.3z"/>
</g>
</svg>
